<svg width="1440" height="1024" viewBox="0 0 1440 1024" fill="none" xmlns="http://www.w3.org/2000/svg">
<rect width="1440" height="1024" fill="url(#paint0_linear_3_3)"/>
<path d="M347.99 439.891L301.387 582.893V582.68C300.536 584.808 299.33 586.581 297.77 588C296.351 589.277 294.578 589.915 292.45 589.915C291.315 589.915 290.18 589.773 289.045 589.49C288.052 589.348 286.988 589.135 285.853 588.851H286.066C277.979 586.298 275 581.758 277.128 575.232L325.646 427.762C326.356 425.492 327.562 423.577 329.264 422.016C331.108 420.455 333.236 419.533 335.648 419.25C338.06 418.824 340.401 418.54 342.67 418.398C344.94 418.115 346.714 417.973 347.99 417.973C349.267 417.973 351.041 418.115 353.31 418.398C355.58 418.54 357.921 418.753 360.333 419.037C362.319 419.321 364.234 420.385 366.078 422.229C368.065 424.073 369.554 425.917 370.547 427.762C378.492 452.163 386.507 476.777 394.594 501.603C402.822 526.288 410.908 550.831 418.853 575.232C420.839 581.758 417.86 586.298 409.915 588.851C408.78 589.135 407.716 589.348 406.723 589.49C405.872 589.773 404.879 589.915 403.744 589.915C401.758 589.915 399.914 589.277 398.211 588C396.651 586.581 395.516 584.808 394.806 582.68V582.893L347.99 439.891ZM363.95 536.928C363.95 541.468 362.319 545.369 359.056 548.632C355.935 551.753 352.105 553.314 347.565 553.314C343.025 553.314 339.195 551.753 336.074 548.632C332.953 545.369 331.392 541.468 331.392 536.928C331.392 532.388 332.953 528.558 336.074 525.437C339.195 522.174 343.025 520.542 347.565 520.542C352.105 520.542 355.935 522.174 359.056 525.437C362.319 528.558 363.95 532.388 363.95 536.928ZM460.252 579.701C460.252 586.369 456.351 589.702 448.548 589.702C440.604 589.702 436.632 586.369 436.632 579.701V427.123C436.632 420.455 440.604 417.122 448.548 417.122C456.351 417.122 460.252 420.455 460.252 427.123V579.701ZM568.558 479.898H527.487C521.671 479.898 517.84 481.6 515.996 485.005C514.01 487.984 513.017 491.46 513.017 495.432V556.718C513.017 560.407 514.152 563.244 516.422 565.23C518.691 567.075 522.451 567.997 527.7 567.997H549.618C554.726 567.997 557.279 571.331 557.279 577.998C557.279 580.836 556.641 583.247 555.364 585.234C554.229 587.078 552.314 588 549.618 588H523.87C514.932 588 506.987 585.73 500.036 581.19C493.085 576.934 489.609 568.848 489.609 556.931V493.517C489.609 487.7 490.531 482.664 492.375 478.408C494.219 474.152 497.128 470.676 501.1 467.981C508.619 462.59 516.138 459.894 523.657 459.894H568.558V427.974C568.558 421.165 572.459 417.76 580.262 417.76C588.064 417.76 591.966 421.165 591.966 427.974V579.062C591.966 585.872 588.064 589.277 580.262 589.277C577.282 589.277 574.587 588.78 572.175 587.787C569.763 586.652 568.558 584.241 568.558 580.552V479.898ZM688.211 459.894C691.9 459.894 695.659 460.675 699.489 462.235C703.462 463.796 707.292 465.782 710.981 468.194H710.768C714.456 470.889 717.294 474.436 719.28 478.834C721.266 483.09 722.259 488.055 722.259 493.73V554.165C722.259 565.798 718.429 574.381 710.768 579.914C703.249 585.305 695.73 588 688.211 588H654.163C650.475 588 646.715 587.362 642.885 586.085C639.054 584.808 635.295 582.751 631.606 579.914C623.945 574.523 620.115 565.94 620.115 554.165V493.73C620.115 488.055 621.108 483.09 623.094 478.834C625.08 474.436 627.918 470.889 631.606 468.194H631.393C634.94 465.782 638.7 463.796 642.672 462.235C646.644 460.675 650.475 459.894 654.163 459.894H688.211ZM684.381 567.997C689.63 567.997 693.318 566.507 695.446 563.528C697.716 560.549 698.851 557.357 698.851 553.952V493.942C698.851 490.396 697.716 487.204 695.446 484.366C693.318 481.387 689.63 479.898 684.381 479.898H657.993C652.744 479.898 648.985 481.387 646.715 484.366C644.587 487.204 643.523 490.396 643.523 493.942V553.952C643.523 557.357 644.587 560.549 646.715 563.528C648.985 566.507 652.744 567.997 657.993 567.997H684.381ZM792.578 589.277C792.294 589.277 791.939 589.206 791.514 589.064C791.088 589.064 790.663 589.064 790.237 589.064C789.528 589.064 788.535 589.064 787.258 589.064C785.981 589.064 784.775 588.993 783.64 588.851C781.228 588.709 779.171 588.071 777.469 586.936C775.767 585.659 774.561 584.17 773.851 582.467L738.101 472.662C737.392 469.683 737.746 467.059 739.165 464.789C740.726 462.377 743.137 460.604 746.4 459.469C747.393 459.185 748.386 458.972 749.379 458.83C750.372 458.689 751.224 458.618 751.933 458.618C756.331 458.618 759.381 461.029 761.083 465.853L776.618 514.158L793.003 564.805L824.923 465.853C826.484 460.887 829.321 458.405 833.435 458.405C834.996 458.405 836.982 458.759 839.394 459.469C843.082 460.462 845.636 462.164 847.055 464.576C848.473 466.846 848.686 469.541 847.693 472.662L812.155 582.467C810.879 586.439 807.545 588.567 802.154 588.851C801.87 588.851 801.515 588.851 801.09 588.851C800.806 588.993 800.522 589.064 800.239 589.064C799.104 589.206 798.111 589.277 797.259 589.277C796.408 589.277 795.628 589.277 794.919 589.277H792.578ZM898.713 588C894.316 588 890.131 587.433 886.158 586.298C882.186 585.021 878.356 583.247 874.667 580.978V581.19C867.716 576.793 864.24 568.706 864.24 556.931V546.504C864.24 540.687 865.233 535.651 867.219 531.395C869.347 526.997 872.255 523.522 875.944 520.968H875.731C879.278 518.556 883.037 516.783 887.009 515.648C890.982 514.371 894.812 513.733 898.501 513.733H945.529V493.942C945.529 490.396 944.395 487.204 942.125 484.366C939.997 481.387 936.308 479.898 931.059 479.898H906.161C900.771 479.898 897.011 481.245 894.883 483.941C892.897 486.494 891.904 489.545 891.904 493.091V494.794C891.904 502.171 887.932 505.859 879.987 505.859C872.043 505.859 868.07 502.171 868.07 494.794V492.878C868.07 487.062 869.063 482.167 871.049 478.195C873.177 474.223 876.015 470.889 879.561 468.194H879.349C883.037 465.782 886.868 463.796 890.84 462.235C894.954 460.675 898.855 459.894 902.544 459.894H934.889C938.436 459.894 942.196 460.675 946.168 462.235C950.282 463.796 954.112 465.782 957.659 468.194H957.446C961.135 470.889 963.972 474.436 965.958 478.834C967.944 483.09 968.937 488.055 968.937 493.73V579.062C968.937 585.872 965.036 589.277 957.233 589.277C955.673 589.277 954.183 589.206 952.765 589.064C951.488 588.922 950.282 588.567 949.147 588C948.154 587.291 947.303 586.369 946.593 585.234C946.026 583.957 945.742 582.325 945.742 580.339L945.529 533.736H902.544C899.423 533.736 897.011 534.091 895.309 534.8C893.606 535.509 892.259 536.644 891.265 538.205C890.131 540.617 889.279 542.532 888.712 543.95C888.286 545.227 888.073 546.717 888.073 548.419V556.718C888.073 560.407 889.137 563.244 891.265 565.23C893.535 567.075 897.366 567.997 902.757 567.997H926.59C931.839 567.997 934.464 571.331 934.464 577.998C934.464 580.836 933.825 583.247 932.549 585.234C931.272 587.078 929.286 588 926.59 588H898.713ZM1019.87 579.062C1019.87 585.872 1015.97 589.277 1008.17 589.277C1000.36 589.277 996.463 585.872 996.463 579.062V493.517C996.463 487.7 997.386 482.664 999.23 478.408C1001.07 474.152 1003.98 470.676 1007.95 467.981C1015.47 462.59 1022.99 459.894 1030.51 459.894H1064.77C1072.01 459.894 1079.53 462.59 1087.33 467.981C1094.99 473.372 1098.82 481.884 1098.82 493.517V579.062C1098.82 585.872 1094.92 589.277 1087.12 589.277C1079.31 589.277 1075.41 585.872 1075.41 579.062V495.432C1075.41 491.743 1074.28 488.197 1072.01 484.792L1072.22 485.005C1070.38 481.6 1066.62 479.898 1060.94 479.898H1034.34C1028.53 479.898 1024.69 481.6 1022.85 485.005C1020.86 487.984 1019.87 491.46 1019.87 495.432V579.062ZM1150.39 579.062C1150.39 585.872 1146.49 589.277 1138.69 589.277C1130.74 589.277 1126.77 585.872 1126.77 579.062V469.258C1126.77 462.448 1130.74 459.043 1138.69 459.043C1146.49 459.043 1150.39 462.448 1150.39 469.258V579.062ZM1154.86 432.23C1154.86 436.77 1153.3 440.601 1150.18 443.722C1147.06 446.843 1143.23 448.403 1138.69 448.403C1134.15 448.403 1130.25 446.843 1126.98 443.722C1123.86 440.601 1122.3 436.77 1122.3 432.23C1122.3 427.549 1123.86 423.647 1126.98 420.526C1130.25 417.405 1134.15 415.845 1138.69 415.845C1143.23 415.845 1147.06 417.405 1150.18 420.526C1153.3 423.647 1154.86 427.549 1154.86 432.23Z" fill="white"/>
<path d="M364 537C364 546.113 356.613 554 347.5 554C338.387 554 331 546.613 331 537.5C331 528.387 338.387 520.5 347.5 520.5C356.613 520.5 364 527.887 364 537Z" fill="#6246EA"/>
<path d="M1155 431.5C1155 440.613 1147.61 448.5 1138.5 448.5C1129.39 448.5 1122 441.113 1122 432C1122 422.887 1129.39 415 1138.5 415C1147.61 415 1155 422.387 1155 431.5Z" fill="#6246EA"/>
<defs>
<linearGradient id="paint0_linear_3_3" x1="-1132.5" y1="512" x2="1440" y2="512" gradientUnits="userSpaceOnUse">
<stop stop-color="#152331"/>
<stop offset="1"/>
</linearGradient>
</defs>
</svg>
