<svg width="64" height="64" viewBox="0 0 64 64" fill="none" xmlns="http://www.w3.org/2000/svg">
<path d="M39.1259 40.6356C42.3308 39.9694 45.239 38.8145 47.4996 37.119C51.3603 34.2236 53.3334 29.7516 53.3334 25.3333C53.3334 22.2338 52.1583 19.3401 50.1239 16.8892C48.9903 15.5234 52.306 5.33333 49.36 6.70573C46.414 8.07813 42.0944 11.1159 39.8302 10.4454C37.406 9.72767 34.7644 9.33333 32 9.33333C29.599 9.33333 27.2906 9.63082 25.1368 10.1793C22.0062 10.9766 19.0122 7.99999 16 6.70573C12.9878 5.41146 14.6315 15.951 13.7368 17.0594C11.7883 19.4736 10.6667 22.3052 10.6667 25.3333C10.6667 29.7516 13.0545 34.2236 16.9151 37.119C19.4868 39.0477 22.712 40.2769 26.3202 40.8828" stroke="#F5F5F5" stroke-width="2.66667" stroke-linecap="round"/>
<path d="M26.3203 40.8826C24.7756 42.5829 24.0032 44.1973 24.0032 45.7261C24.0032 47.2548 24.0032 51.1286 24.0032 57.3477" stroke="#F5F5F5" stroke-width="2.66667" stroke-linecap="round"/>
<path d="M39.1257 40.6356C40.5894 42.5566 41.3213 44.2816 41.3213 45.8102C41.3213 47.339 41.3213 51.1848 41.3213 57.3477" stroke="#F5F5F5" stroke-width="2.66667" stroke-linecap="round"/>
<path d="M8 41.6208C9.19849 41.7673 10.0874 42.3184 10.6667 43.274C11.5356 44.7072 14.7656 50.0241 18.4335 50.0241C20.8788 50.0241 22.7353 50.0241 24.0032 50.0241" stroke="#F5F5F5" stroke-width="2.66667" stroke-linecap="round"/>
</svg>
