<svg width="158" height="155" viewBox="0 0 158 155" fill="none" xmlns="http://www.w3.org/2000/svg">
<path d="M104.474 47.4544H134.266C149.729 47.4544 157.461 55.0443 157.461 70.224V153.854H133.202C130.932 153.854 129.087 153.074 127.669 151.514C126.25 149.953 125.541 147.896 125.541 145.342V69.7984C125.541 67.5285 124.973 65.8971 123.838 64.904C122.845 63.9109 120.505 63.4144 116.816 63.4144H104.474V47.4544ZM67.2336 0H80.2144C86.4565 0 91.1381 1.56053 94.2592 4.6816C97.5221 7.66081 99.1536 11.5621 99.1536 16.3856V153.854H74.8944C72.6245 153.854 70.7802 153.074 69.3616 151.514C67.9429 149.953 67.2336 147.896 67.2336 145.342V0Z" fill="#6246EA"/>
<path d="M57.2432 20.216H37.4528C35.1829 20.216 34.048 20.7835 34.048 21.9184V153.854H11.704C6.88053 153.854 3.68853 153.074 2.128 151.514C0.709333 149.953 0 146.69 0 141.725V12.1296C0 7.16427 0.709333 3.90134 2.128 2.34081C3.68853 0.780269 6.88053 0 11.704 0H57.2432V20.216ZM65.7552 0H88.0992C92.9227 0 96.0437 0.780269 97.4624 2.34081C99.0229 3.90134 99.8032 7.16427 99.8032 12.1296V141.512C99.8032 146.477 100.303 153.854 99.3912 153.354C100.391 154.854 92.7808 153.854 88.0992 153.854H65.7552V82.5664H42.56V62.3504H65.7552V0Z" fill="#6246EA"/>
</svg>
