<svg width="64" height="65" viewBox="0 0 64 65" fill="none" xmlns="http://www.w3.org/2000/svg">
<path d="M45.3333 8.5H18.6667C12.7756 8.5 8 13.2756 8 19.1667V45.8333C8 51.7244 12.7756 56.5 18.6667 56.5H45.3333C51.2244 56.5 56 51.7244 56 45.8333V19.1667C56 13.2756 51.2244 8.5 45.3333 8.5Z" stroke="#E1306C" stroke-width="2.66667" stroke-linejoin="round"/>
<path d="M32 43.1667C37.8911 43.1667 42.6667 38.3911 42.6667 32.5C42.6667 26.6089 37.8911 21.8333 32 21.8333C26.1089 21.8333 21.3333 26.6089 21.3333 32.5C21.3333 38.3911 26.1089 43.1667 32 43.1667Z" stroke="#E1306C" stroke-width="2.66667" stroke-linejoin="round"/>
<path d="M46.6667 20.5C48.1395 20.5 49.3333 19.3061 49.3333 17.8333C49.3333 16.3605 48.1395 15.1667 46.6667 15.1667C45.1939 15.1667 44 16.3605 44 17.8333C44 19.3061 45.1939 20.5 46.6667 20.5Z" fill="#E1306C"/>
</svg>
