<svg width="64" height="64" viewBox="0 0 64 64" fill="none" xmlns="http://www.w3.org/2000/svg">
<path d="M12 16.0002C14.9455 16.0002 17.3333 13.6123 17.3333 10.6668C17.3333 7.72131 14.9455 5.3335 12 5.3335C9.05449 5.3335 6.66667 7.72131 6.66667 10.6668C6.66667 13.6123 9.05449 16.0002 12 16.0002Z" stroke="#0077B5" stroke-width="2.66667"/>
<path d="M17.3333 24.0001H6.66667V57.3335H17.3333V24.0001Z" stroke="#0077B5" stroke-width="2.66667" stroke-linejoin="round"/>
<path d="M28 36.6667V57.3333H37.3333V38.6667C37.3333 35.3333 39.3333 32.6667 42.6667 32.6667C46 32.6667 48 36 48 38.6667V57.3333H57.3333V36.6667C57.3333 32.6667 52.6667 24 42.6667 24C32.6667 24 28 32.6667 28 36.6667Z" stroke="#0077B5" stroke-width="2.66667" stroke-linejoin="round"/>
</svg>
