<svg width="64" height="65" viewBox="0 0 64 65" fill="none" xmlns="http://www.w3.org/2000/svg">
<path d="M6.66681 48.1829C9.23862 49.6048 27.8553 60.3364 41.0933 52.0653C54.3312 43.7943 53.6009 29.5444 53.6009 23.0147C54.8001 20.5024 57.3335 19.2252 57.3335 12.4251C54.8451 14.7237 52.3717 15.5059 49.9135 14.7715C47.5051 11.0994 44.1915 9.4753 39.9727 9.89913C33.6445 10.5349 31.3293 16.7433 32.0107 24.7756C22.2533 29.7099 14.6021 21.1987 10.659 14.7715C9.34157 19.8332 8.07121 25.9101 10.659 32.6327C12.3843 37.1143 16.5315 40.9032 23.1007 43.9995C16.4432 47.6077 10.9652 49.0021 6.66681 48.1829Z" stroke="#1DA1F2" stroke-width="2.66667" stroke-linejoin="round"/>
</svg>
